<svg width="958" height="953" viewBox="0 0 958 953" fill="none" xmlns="http://www.w3.org/2000/svg">
<g clip-path="url(#clip0)">
<path d="M741.889 556.328V587.201L513.615 461.838V430.029L741.889 556.328Z" fill="#2E4384"/>
<path d="M745.631 585.33L741.889 587.201V556.328L745.631 554.457V585.33Z" fill="#726BDF"/>
<path d="M536.068 451.547L533.262 450.611V441.256L536.068 442.191V451.547Z" fill="#F1F8F1"/>
<path d="M542.617 455.289L539.811 454.354V444.998L542.617 445.934V455.289Z" fill="#F1F8F1"/>
<path d="M555.715 461.838L552.908 460.902V451.547L555.715 452.482V461.838Z" fill="#F1F8F1"/>
<path d="M562.264 465.58L559.457 464.645V455.289L562.264 456.225V465.58Z" fill="#F1F8F1"/>
<path d="M575.361 473.064L572.555 472.129V462.773L575.361 463.709V473.064Z" fill="#F1F8F1"/>
<path d="M581.91 476.807L579.103 475.871V466.516L581.91 467.451V476.807Z" fill="#F1F8F1"/>
<path d="M595.008 484.291L592.201 483.355V474L595.008 474.936V484.291Z" fill="#F1F8F1"/>
<path d="M601.557 488.033L598.75 487.098V477.742L601.557 478.678V488.033Z" fill="#F1F8F1"/>
<path d="M613.719 494.582L610.912 493.646V484.291L613.719 485.227V494.582Z" fill="#F1F8F1"/>
<path d="M620.268 498.324L617.461 497.389V488.033L620.268 488.969V498.324Z" fill="#F1F8F1"/>
<path d="M633.365 504.873L630.559 503.937V494.582L633.365 495.518V504.873Z" fill="#F1F8F1"/>
<path d="M639.914 508.615L637.107 507.68V498.324L639.914 499.26V508.615Z" fill="#F1F8F1"/>
<path d="M653.012 516.1L650.205 515.164V505.809L653.012 506.744V516.1Z" fill="#F1F8F1"/>
<path d="M659.561 519.842L656.754 518.906V509.551L659.561 510.486V519.842Z" fill="#F1F8F1"/>
<path d="M672.658 527.326L669.852 526.391V517.035L672.658 517.971V527.326Z" fill="#F1F8F1"/>
<path d="M679.207 531.068L676.4 530.133V520.777L679.207 521.713V531.068Z" fill="#F1F8F1"/>
<path d="M692.305 537.617L689.498 536.682V527.326L692.305 528.262V537.617Z" fill="#F1F8F1"/>
<path d="M698.853 541.359L696.047 540.424V531.068L698.853 532.004V541.359Z" fill="#F1F8F1"/>
<path d="M711.951 548.844L709.145 547.908V538.553L711.951 539.488V548.844Z" fill="#F1F8F1"/>
<path d="M718.5 552.586L715.693 551.65V542.295L718.5 543.23V552.586Z" fill="#F1F8F1"/>
<path d="M730.662 559.135L727.855 558.199V548.844L730.662 549.779V559.135Z" fill="#F1F8F1"/>
<path d="M737.211 562.877L734.404 561.941V552.586L737.211 553.521V562.877Z" fill="#F1F8F1"/>
<path d="M522.971 444.063L520.164 443.127V433.771L522.971 434.707V444.063Z" fill="#F1F8F1"/>
<path d="M725.049 565.684L722.242 564.748V545.102L725.049 546.973V565.684Z" fill="#F1F8F1"/>
<path d="M705.402 554.457L702.596 553.521V533.875L705.402 535.746V554.457Z" fill="#F1F8F1"/>
<path d="M685.756 544.166L682.949 543.23V523.584L685.756 525.455V544.166Z" fill="#F1F8F1"/>
<path d="M666.109 532.939L663.303 532.004V512.357L666.109 514.229V532.939Z" fill="#F1F8F1"/>
<path d="M646.463 521.713L643.656 520.777V501.131L646.463 503.002V521.713Z" fill="#F1F8F1"/>
<path d="M626.816 511.422L624.01 510.486V490.84L626.816 492.711V511.422Z" fill="#F1F8F1"/>
<path d="M607.17 500.195L604.363 499.26V479.613L607.17 481.484V500.195Z" fill="#F1F8F1"/>
<path d="M587.523 489.904L584.717 488.969V469.322L587.523 471.193V489.904Z" fill="#F1F8F1"/>
<path d="M568.812 478.678L566.006 477.742V458.096L568.812 459.967V478.678Z" fill="#F1F8F1"/>
<path d="M549.166 468.387L546.359 467.451V447.805L549.166 449.676V468.387Z" fill="#F1F8F1"/>
<path d="M529.52 457.16L526.713 456.225V436.578L529.52 438.449V457.16Z" fill="#F1F8F1"/>
<path d="M745.631 554.457L741.889 556.328L513.615 430.029L517.357 427.223L745.631 554.457Z" fill="#DAE7FF"/>
<path d="M358.314 314.021L357.379 382.316L271.309 332.732L273.18 264.438L358.314 314.021Z" fill="#D1DEFF"/>
<path d="M364.863 310.279V376.703L357.379 382.316L358.314 314.021L364.863 310.279Z" fill="#8BBFF9"/>
<path d="M308.73 276.6L364.863 310.279L358.314 314.021L302.182 281.277L308.73 276.6Z" fill="#454384"/>
<path d="M308.73 262.566V276.6L302.182 281.277V267.244L308.73 262.566Z" fill="#454384"/>
<path d="M278.793 244.791L308.73 262.566L302.182 267.244L278.793 255.082V244.791Z" fill="#454384"/>
<path d="M278.793 255.082L272.244 251.34L278.793 244.791V255.082Z" fill="#97BFF2"/>
<path d="M302.182 267.244V281.277L273.18 264.438L272.244 251.34L302.182 267.244Z" fill="#CCDAFD"/>
<path d="M303.117 256.953L316.215 264.438" stroke="#14B4D8" stroke-width="2" stroke-miterlimit="10" stroke-linecap="round"/>
<path d="M310.602 253.211L323.699 260.695" stroke="#14B4D8" stroke-width="2" stroke-miterlimit="10" stroke-linecap="round"/>
<path d="M302.182 264.438L315.279 271.922" stroke="#14B4D8" stroke-width="2" stroke-miterlimit="10" stroke-linecap="round"/>
<path d="M332.119 268.18L345.217 275.664" stroke="#14B4D8" stroke-width="2" stroke-miterlimit="10" stroke-linecap="round"/>
<path d="M339.604 264.438L352.701 271.922" stroke="#14B4D8" stroke-width="2" stroke-miterlimit="10" stroke-linecap="round"/>
<path d="M331.184 275.664L344.281 283.148" stroke="#14B4D8" stroke-width="2" stroke-miterlimit="10" stroke-linecap="round"/>
<path d="M313.408 237.307L326.506 244.791" stroke="#14B4D8" stroke-width="2" stroke-miterlimit="10" stroke-linecap="round"/>
<path d="M330.248 246.662L343.346 254.146" stroke="#14B4D8" stroke-width="2" stroke-miterlimit="10" stroke-linecap="round"/>
<path d="M312.473 244.791L325.57 252.275" stroke="#14B4D8" stroke-width="2" stroke-miterlimit="10" stroke-linecap="round"/>
<path d="M319.957 286.891L344.281 300.924" stroke="#14B4D8" stroke-width="2" stroke-miterlimit="10" stroke-linecap="round"/>
<path d="M347.088 302.795L351.766 305.602" stroke="#14B4D8" stroke-width="2" stroke-miterlimit="10" stroke-linecap="round"/>
<path d="M349.895 371.09L329.312 359.863V343.023L350.83 354.25L349.895 371.09Z" fill="#8FC0FA"/>
<path d="M334.926 355.186L346.152 361.734" stroke="white" stroke-miterlimit="10" stroke-linecap="round" stroke-linejoin="round"/>
<path d="M333.055 349.572L344.281 356.121" stroke="white" stroke-miterlimit="10" stroke-linecap="round" stroke-linejoin="round"/>
<path d="M271.309 514.228C271.309 514.228 279.729 510.486 282.535 511.422C283.097 511.609 283.658 511.89 284.032 512.17C285.622 513.293 285.622 515.632 284.219 516.942C280.009 520.59 270.654 528.449 268.502 529.197C265.695 530.133 261.018 530.133 259.146 529.197C257.275 528.262 258.211 520.777 258.211 520.777L271.309 514.228Z" fill="#2B4081"/>
<path d="M245.113 499.26C245.113 499.26 253.533 495.518 256.34 496.453C256.901 496.64 257.463 496.921 257.837 497.202C259.427 498.324 259.427 500.663 258.024 501.973C253.814 505.622 244.458 513.48 242.307 514.229C239.5 515.164 234.822 515.164 232.951 514.229C231.08 513.293 232.016 505.809 232.016 505.809L245.113 499.26Z" fill="#2B4081"/>
<path d="M230.145 421.609C230.145 421.609 238.564 428.158 251.662 428.158C264.76 428.158 273.18 425.352 273.18 425.352V517.971C273.18 517.971 269.438 522.648 266.631 522.648C263.824 522.648 259.146 522.648 258.211 521.713C257.275 520.777 254.469 479.613 254.469 479.613L251.662 437.514L247.92 482.42L246.984 503.002C246.984 503.002 243.242 507.68 239.5 507.68C235.758 507.68 231.08 506.744 231.08 506.744L230.145 421.609Z" fill="#FFDA5B"/>
<path d="M271.309 306.537V295.311L267.566 291.568C267.566 291.568 265.695 290.633 265.695 291.568C265.695 292.504 265.695 293.439 266.631 293.439C267.566 293.439 268.502 295.311 267.566 296.246C266.631 297.182 264.76 293.439 264.76 293.439C264.76 293.439 261.953 285.955 261.018 285.955C260.082 285.955 259.146 285.955 259.146 286.891C259.146 287.826 262.889 293.439 261.953 293.439C261.018 293.439 261.018 295.311 261.018 297.182C261.018 299.053 262.889 301.859 263.824 302.795C264.76 303.73 266.631 306.537 266.631 306.537H271.309Z" fill="#FFCCB9"/>
<path d="M319.021 342.088L322.764 345.83C322.764 345.83 323.699 343.959 325.57 343.959C327.441 343.959 332.119 343.959 333.055 343.023C333.99 342.088 335.861 338.346 334.926 336.475C333.99 334.604 329.312 332.732 326.506 333.668C323.699 334.604 322.764 338.346 320.893 339.281C319.021 340.217 319.021 342.088 319.021 342.088Z" fill="#FFCCB9"/>
<path d="M273.18 304.666L264.76 306.537C264.76 306.537 266.631 330.861 262.889 334.604C259.146 338.346 237.629 349.572 233.887 353.314C230.145 357.057 230.145 383.252 230.145 383.252L227.338 419.738C227.338 419.738 238.564 428.158 248.855 428.158C259.146 428.158 275.051 426.287 275.986 425.352C276.922 424.416 275.986 368.283 275.986 368.283C275.986 368.283 301.246 369.219 303.117 368.283C304.988 367.348 325.57 346.766 325.57 346.766L318.086 340.217L298.439 357.057C298.439 357.057 273.18 354.25 265.695 348.637L264.76 347.701C264.76 347.701 274.115 339.281 274.115 337.41C274.115 335.539 275.051 305.602 273.18 304.666Z" fill="#6E6FDB"/>
<path d="M261.018 348.637C261.018 348.637 249.791 349.572 248.855 348.637C247.92 347.701 248.855 342.088 248.855 342.088C248.855 342.088 244.178 338.346 243.242 334.604C242.307 330.861 241.371 320.57 243.242 319.635C245.113 318.699 247.92 313.086 252.598 313.086C257.275 313.086 262.889 314.957 262.889 314.957C262.889 314.957 267.566 319.635 267.566 322.441C267.566 325.248 266.631 336.475 266.631 336.475C266.631 336.475 265.695 342.088 262.889 343.023C260.082 343.959 260.082 343.959 260.082 344.895C260.082 345.83 261.018 348.637 261.018 348.637Z" fill="#FFC7B6"/>
<path d="M257.463 342.088H250.82C250.165 342.088 249.51 341.901 249.043 341.527C247.078 340.123 242.4 336.288 242.4 331.797V321.599C242.4 320.851 242.587 320.196 243.055 319.541C244.458 317.483 248.107 312.992 251.756 312.992H259.427C259.895 312.992 260.363 313.179 260.737 313.46C262.047 314.489 265.228 317.109 265.789 317.67C266.724 318.606 270.467 315.799 270.467 316.735C270.467 317.67 270.467 322.348 266.724 323.283C262.982 324.219 262.047 328.897 262.047 331.703C262.047 334.229 261.298 339.188 259.053 341.433C258.492 341.901 258.024 342.088 257.463 342.088Z" fill="#733D23"/>
<path d="M890.641 699.467C890.641 699.467 889.705 711.629 886.898 714.436C884.092 717.242 881.285 718.178 879.414 717.242C877.543 716.307 875.672 714.436 876.607 711.629C877.543 708.822 879.414 699.467 880.35 699.467C881.285 699.467 887.834 695.725 890.641 699.467Z" fill="#375088"/>
<path d="M843.863 680.756C843.863 680.756 834.508 685.434 833.572 687.305C832.637 689.176 822.346 688.24 820.475 685.434C819.913 684.685 821.41 681.691 824.217 680.756C827.023 679.82 832.637 675.143 834.508 675.143C836.379 675.143 844.799 675.143 843.863 680.756Z" fill="#375088"/>
<path d="M879.414 702.273C879.414 702.273 887.834 703.209 888.77 702.273C889.705 701.338 890.641 700.402 890.641 698.531C890.641 696.66 881.285 694.789 880.35 696.66C879.414 698.531 879.414 701.338 879.414 702.273Z" fill="#FFBEAD"/>
<path d="M817.668 540.424L812.055 544.166C812.055 544.166 810.184 541.359 808.312 541.359C806.441 541.359 802.419 539.208 801.764 538.553C800.828 537.617 799.425 533.22 801.764 532.004C803.635 531.068 804.57 532.004 806.441 533.875C807.938 535.372 810.184 535.746 811.119 534.811C812.055 533.875 810.184 532.939 806.441 532.939C806.441 532.939 805.506 531.068 807.377 531.068C810.184 531.068 812.055 531.068 812.99 532.939C813.926 534.811 813.926 540.424 817.668 540.424Z" fill="#FFCCBA"/>
<path d="M833.572 677.014C833.572 677.014 835.443 678.885 836.379 678.885C837.314 678.885 843.863 679.82 843.863 678.885C843.863 677.949 844.799 675.143 843.863 675.143C842.928 675.143 836.379 675.143 835.443 675.143C834.508 675.143 833.572 677.014 833.572 677.014Z" fill="#FFBEAD"/>
<path d="M842.928 598.428C842.928 598.428 856.961 607.783 863.51 608.719C870.059 609.654 885.963 608.719 886.898 606.848L892.512 697.596C892.512 697.596 887.834 699.467 884.092 699.467C880.35 699.467 876.607 699.467 875.672 697.596C874.736 695.725 863.51 615.268 863.51 615.268C863.51 615.268 846.67 677.014 845.734 677.014C844.799 677.014 841.057 677.949 838.25 677.014C835.443 676.078 832.637 675.143 831.701 673.271C830.766 671.4 842.928 608.719 842.928 598.428Z" fill="#27E0C0"/>
<path d="M888.77 606.848C888.77 606.848 870.994 614.332 861.639 608.719C852.283 603.106 843.863 600.299 842.928 598.428C841.992 596.557 845.734 562.877 845.734 562.877C845.734 562.877 839.186 569.426 835.443 569.426C831.701 569.426 810.184 546.037 810.184 546.037L817.668 539.488C817.668 539.488 829.83 557.264 831.701 557.264C833.572 557.264 852.283 534.811 853.219 534.811C854.154 534.811 871.93 534.811 873.801 535.746C875.672 536.682 883.156 539.488 884.092 543.23C885.027 546.973 888.77 557.264 888.77 563.813C888.77 570.361 888.77 606.848 888.77 606.848Z" fill="#2E4384"/>
<path d="M867.252 534.811C867.252 534.811 872.865 534.811 872.865 535.746C872.865 536.682 873.801 543.23 865.381 544.166C865.381 544.166 859.768 545.102 859.768 544.166C859.768 543.23 860.703 539.488 859.768 539.488C858.832 539.488 856.025 540.424 855.09 540.424C854.154 540.424 855.09 537.617 855.09 536.682C855.09 535.746 854.154 533.875 856.025 533.875C857.896 533.875 867.252 534.811 867.252 534.811Z" fill="#F2F8F4"/>
<path d="M870.994 537.617C870.994 537.617 865.381 541.359 862.574 539.488C859.768 537.617 858.832 536.682 857.896 536.682C856.961 536.682 854.154 534.811 853.219 532.94C852.283 531.068 851.348 520.777 852.283 517.035C853.219 513.293 857.896 509.551 857.896 509.551H868.187L874.736 514.229L876.607 517.971C876.607 517.971 873.801 528.262 871.93 528.262C870.059 528.262 870.994 532.004 870.994 532.004C870.994 532.004 871.93 537.617 870.994 537.617Z" fill="#FFC7AF"/>
<path d="M871.93 517.971C871.93 517.971 854.154 518.906 854.154 517.971C854.154 517.035 850.412 514.229 850.412 514.229C850.412 514.229 849.476 510.486 850.412 509.551C851.348 508.615 856.961 503.002 859.768 503.002C862.574 503.002 868.188 502.066 869.123 503.002C870.059 503.938 876.607 505.809 876.607 509.551C876.607 513.293 878.479 516.1 877.543 518.906C876.607 521.713 874.736 526.391 872.865 527.326C870.994 528.262 872.865 524.52 872.865 524.52C872.865 524.52 874.736 523.584 874.736 518.906C874.736 514.229 871.93 517.971 871.93 517.971Z" fill="#78422A"/>
<path d="M817.668 554.457L853.219 574.104L827.023 599.363L782.117 573.168L817.668 554.457Z" fill="white"/>
<path d="M835.256 583.459C834.321 582.056 833.479 580.559 832.169 579.53C831.795 579.249 831.14 579.249 830.766 579.53C830.017 579.998 829.456 580.652 828.895 581.401C829.643 581.588 830.485 581.775 831.233 582.056C830.766 580.559 830.017 577.565 828.427 576.817C827.772 576.536 827.211 576.817 826.556 576.63C823.281 575.975 823.936 575.413 822.252 573.916C820.568 572.513 820.1 572.326 817.949 571.952C815.797 571.578 815.329 569.987 813.458 569.426C811.774 568.864 811.026 571.578 812.71 572.139C813.739 572.513 814.206 574.197 815.236 574.758C817.668 575.975 817.668 574.01 820.755 576.723C821.878 577.659 822.346 579.062 823.936 579.623C826.181 580.465 827.585 579.623 828.614 582.898C828.895 583.833 830.298 584.395 830.953 583.553C831.982 582.243 832.169 583.927 833.011 584.956C833.853 586.266 836.285 584.862 835.256 583.459Z" fill="#A0A0F6"/>
<path d="M840.402 580.185C839.279 578.314 838.905 574.946 836.005 575.975C835.163 576.349 836.192 576.442 835.537 575.694C835.256 575.32 834.601 575.133 834.134 575.039C832.45 574.571 831.046 574.291 830.017 572.7C828.988 571.203 826.556 572.607 827.585 574.104C828.894 575.881 830.391 577.004 832.543 577.565C834.695 578.126 835.35 579.81 837.595 578.314C837.221 578.407 836.847 578.407 836.472 578.501C836.566 578.501 837.782 581.494 837.876 581.681C838.905 583.178 841.337 581.775 840.402 580.185Z" fill="#A0A0F6"/>
<path d="M827.023 599.363L782.117 573.168L783.988 531.068L828.895 559.135V599.363H827.023Z" fill="#F4F8FF"/>
<path d="M783.988 531.068L828.895 559.135L827.959 597.492L782.117 570.361L783.053 574.104L827.023 599.363L830.766 597.492V559.135L786.795 531.068H783.988Z" fill="#A0A0F6"/>
<path d="M837.314 587.201C837.314 587.201 828.614 590.288 827.959 590.943C827.023 591.879 824.872 595.995 826.088 596.557C827.959 597.492 827.023 593.75 828.894 593.75C830.766 593.75 830.766 595.621 829.83 596.557C828.894 597.492 826.088 598.428 826.088 599.363C826.088 600.299 824.217 602.17 826.088 602.17C827.959 602.17 833.572 602.17 835.443 600.299C837.314 598.428 836.379 595.621 836.379 595.621L840.121 591.879C840.121 591.879 838.25 587.201 837.314 587.201Z" fill="#FFCCBA"/>
<path d="M858.832 572.232L836.379 586.266C836.379 586.266 839.186 592.814 839.186 593.75C839.186 593.75 866.316 583.459 866.316 581.588C866.316 581.588 870.901 575.787 870.059 573.168C869.123 570.361 863.51 569.426 858.832 572.232Z" fill="#2B4081"/>
<path d="M740.86 534.062L545.985 418.99C534.01 411.973 533.917 394.759 545.798 387.555L676.962 307.847C684.446 303.356 693.708 303.076 701.379 307.192L914.029 424.603C922.73 429.374 923.104 441.724 914.778 447.056L782.117 532.565C769.861 541.079 753.77 541.64 740.86 534.062Z" fill="#BC5083"/>
<path d="M740.86 529.384L545.985 414.312C534.01 407.296 533.917 390.081 545.798 382.878L676.962 303.169C684.446 298.678 693.708 298.398 701.379 302.514L914.029 419.925C922.73 424.697 923.104 437.046 914.778 442.379L782.117 527.888C769.861 536.401 753.77 536.962 740.86 529.384Z" fill="#FE65A8"/>
<path d="M724.3 469.697L651.421 427.036C644.405 422.732 645.059 412.347 652.544 408.886L712.887 372.025L816.732 422.545L735.153 469.79C731.878 471.755 727.668 471.755 724.3 469.697Z" fill="#BB426D"/>
<path d="M798.957 415.061L726.92 457.16L725.984 409.447L773.697 380.445L798.957 415.061Z" fill="#7669ED"/>
<path d="M862.574 458.096L627.845 316.454C623.168 313.834 620.174 308.876 620.174 303.45L609.977 94.168C609.883 88.8354 623.261 80.6026 627.939 83.2221L871.649 220.28C876.982 223.273 880.256 228.98 880.162 235.061L877.543 449.395C877.637 452.95 865.568 459.78 862.574 458.096Z" fill="#6A6ADC"/>
<path d="M862.387 458.002L619.425 321.132C614.748 318.512 611.754 313.554 611.754 308.128L609.228 94.0744C609.135 88.7418 614.935 85.2803 619.613 87.8998L863.322 224.957C868.655 227.951 871.93 233.658 871.836 239.739L869.216 454.073C869.216 457.628 865.381 459.78 862.387 458.002Z" fill="#CEDCF9"/>
<path d="M623.074 301.859L621.203 104.459L859.768 241.049L856.025 432.836L623.074 301.859Z" fill="#2E4384"/>
<path d="M658.625 418.803L659.561 412.254L726.92 451.547V457.16L658.625 418.803Z" fill="#D5E5F2"/>
<path d="M659.561 412.254L726.92 451.547C726.92 451.547 760.6 446.869 761.535 401.027L693.24 360.799C693.24 360.799 701.66 393.543 659.561 412.254Z" fill="#8DC1FD"/>
<path d="M832.637 361.734L748.437 314.021L744.695 248.533L830.766 297.182L832.637 361.734Z" fill="#8DC1FD"/>
<path d="M747.502 325.248L772.762 339.281" stroke="white" stroke-width="2" stroke-miterlimit="10"/>
<path d="M780.246 343.023L811.119 361.734" stroke="white" stroke-width="2" stroke-miterlimit="10"/>
<path d="M765.277 341.152L796.15 359.863" stroke="white" stroke-width="2" stroke-miterlimit="10"/>
<path d="M798.957 361.734L829.83 380.445" stroke="white" stroke-width="2" stroke-miterlimit="10"/>
<path d="M748.437 337.41L834.508 386.059" stroke="white" stroke-width="2" stroke-miterlimit="10"/>
<path d="M747.502 342.088L778.375 360.799" stroke="white" stroke-width="2" stroke-miterlimit="10"/>
<path d="M781.182 362.67L812.055 381.381" stroke="white" stroke-width="2" stroke-miterlimit="10"/>
<path d="M776.504 363.605L807.377 382.316" stroke="white" stroke-width="2" stroke-miterlimit="10"/>
<path d="M655.818 312.15L624.01 295.311L593.137 93.2324L624.945 110.072L655.818 312.15Z" fill="#8DC1FD"/>
<path d="M624.01 234.5L604.363 226.08V174.625L624.01 184.916V234.5Z" fill="#D1DEFF"/>
<path d="M613.719 171.818L594.072 167.047V138.139L613.719 143.939V171.818Z" fill="#D1DEFF"/>
<path d="M600.621 132.525L580.975 127.754V98.8457L600.621 104.646V132.525Z" fill="#D1DEFF"/>
<path d="M633.365 267.244L613.719 263.783V242.92L633.365 247.13V267.244Z" fill="#D1DEFF"/>
<path d="M653.012 299.988L629.623 292.785V271.922L653.012 279.874V299.988Z" fill="#D1DEFF"/>
<path d="M708.209 220.467L728.791 231.693" stroke="#3FFCFF" stroke-width="2" stroke-miterlimit="10" stroke-linecap="round" stroke-linejoin="round"/>
<path d="M679.207 212.982L699.789 224.209" stroke="#3FFCFF" stroke-width="2" stroke-miterlimit="10" stroke-linecap="round" stroke-linejoin="round"/>
<path d="M684.82 222.338L705.402 233.564" stroke="#3FFCFF" stroke-width="2" stroke-miterlimit="10" stroke-linecap="round" stroke-linejoin="round"/>
<path d="M679.207 226.08L692.305 233.564" stroke="#3FFCFF" stroke-width="2" stroke-miterlimit="10" stroke-linecap="round" stroke-linejoin="round"/>
<path d="M676.4 239.178L696.982 250.404" stroke="#3FFCFF" stroke-width="2" stroke-miterlimit="10" stroke-linecap="round" stroke-linejoin="round"/>
<path d="M699.789 258.824L720.371 270.051" stroke="#3FFCFF" stroke-width="2" stroke-miterlimit="10" stroke-linecap="round" stroke-linejoin="round"/>
<path d="M691.369 262.566L711.951 273.793" stroke="#3FFCFF" stroke-width="2" stroke-miterlimit="10" stroke-linecap="round" stroke-linejoin="round"/>
<path d="M686.691 264.437L707.273 275.664" stroke="#3FFCFF" stroke-width="2" stroke-miterlimit="10" stroke-linecap="round" stroke-linejoin="round"/>
<path d="M683.885 270.051L704.467 281.277" stroke="#3FFCFF" stroke-width="2" stroke-miterlimit="10" stroke-linecap="round" stroke-linejoin="round"/>
<path d="M691.369 281.277L711.951 292.504" stroke="#3FFCFF" stroke-width="2" stroke-miterlimit="10" stroke-linecap="round" stroke-linejoin="round"/>
<path d="M716.629 295.311L724.113 299.053" stroke="#3FFCFF" stroke-width="2" stroke-miterlimit="10" stroke-linecap="round" stroke-linejoin="round"/>
<path d="M721.307 262.566L731.598 268.18" stroke="#3FFCFF" stroke-width="2" stroke-miterlimit="10" stroke-linecap="round" stroke-linejoin="round"/>
<path d="M695.111 241.984L715.693 253.211" stroke="#3FFCFF" stroke-width="2" stroke-miterlimit="10" stroke-linecap="round" stroke-linejoin="round"/>
<path d="M691.369 295.311L711.951 306.537" stroke="#3FFCFF" stroke-width="2" stroke-miterlimit="10" stroke-linecap="round" stroke-linejoin="round"/>
<path d="M683.885 304.666L704.467 315.893" stroke="#3FFCFF" stroke-width="2" stroke-miterlimit="10" stroke-linecap="round" stroke-linejoin="round"/>
<path d="M722.242 326.184L742.824 337.41" stroke="#3FFCFF" stroke-width="2" stroke-miterlimit="10" stroke-linecap="round" stroke-linejoin="round"/>
<path d="M710.08 326.184L730.662 337.41" stroke="#3FFCFF" stroke-width="2" stroke-miterlimit="10" stroke-linecap="round" stroke-linejoin="round"/>
<path d="M687.627 209.24L701.66 216.725" stroke="white" stroke-width="2" stroke-miterlimit="10" stroke-linecap="round" stroke-linejoin="round"/>
<path d="M718.5 234.5L728.791 240.113" stroke="white" stroke-width="2" stroke-miterlimit="10" stroke-linecap="round" stroke-linejoin="round"/>
<path d="M695.111 234.5L705.402 240.113" stroke="white" stroke-width="2" stroke-miterlimit="10" stroke-linecap="round" stroke-linejoin="round"/>
<path d="M672.658 243.855L693.24 255.082" stroke="white" stroke-width="2" stroke-miterlimit="10" stroke-linecap="round" stroke-linejoin="round"/>
<path d="M708.209 283.148L717.564 288.762" stroke="white" stroke-width="2" stroke-miterlimit="10" stroke-linecap="round" stroke-linejoin="round"/>
<path d="M693.24 289.697L704.467 295.311" stroke="white" stroke-width="2" stroke-miterlimit="10" stroke-linecap="round" stroke-linejoin="round"/>
<path d="M689.498 300.924L728.791 323.377" stroke="white" stroke-width="2" stroke-miterlimit="10" stroke-linecap="round" stroke-linejoin="round"/>
<path d="M682.949 311.215L706.338 324.313" stroke="white" stroke-width="2" stroke-miterlimit="10" stroke-linecap="round" stroke-linejoin="round"/>
<path d="M702.596 253.211L711.951 258.824" stroke="white" stroke-width="2" stroke-miterlimit="10" stroke-linecap="round" stroke-linejoin="round"/>
<path d="M708.209 241.049L728.791 252.275" stroke="#3FFCFF" stroke-width="2" stroke-miterlimit="10" stroke-linecap="round" stroke-linejoin="round"/>
<path d="M848.541 283.148L655.818 169.947L649.27 125.977L847.605 237.307L848.541 283.148Z" fill="white"/>
<path d="M468.709 337.41C468.709 337.41 470.58 337.41 472.451 338.346C474.322 339.281 476.193 341.152 478.064 340.217C479.936 339.281 480.871 333.668 478.064 334.604C475.258 335.539 477.129 332.732 477.129 332.732C477.129 332.732 479.936 332.732 479.936 331.797C479.936 330.861 476.193 329.926 473.387 332.732C470.58 335.539 466.838 333.668 466.838 333.668L468.709 337.41Z" fill="#F2C9C3"/>
<path d="M461.412 452.295L496.775 270.519L518.199 277.255L481.713 456.505C480.403 462.961 467.306 468.293 461.318 465.674L461.412 452.295Z" fill="#626BCA"/>
<path d="M532.326 233.564L525.777 236.371L524.187 265.467C523.813 266.964 522.035 267.618 520.725 266.683L502.482 253.024C499.863 251.153 498.553 247.785 499.301 244.604L505.757 214.666C495.653 217.473 481.713 220.093 481.713 238.242C481.713 262.005 500.424 288.013 515.393 286.891C533.636 285.487 539.904 274.074 537.846 250.404C537.285 242.639 534.104 238.429 532.326 233.564Z" fill="#626BCA"/>
<path d="M458.979 466.609C454.582 464.645 452.056 459.873 452.992 455.196L488.355 273.325L509.779 280.061L473.293 459.312C471.89 465.674 464.967 469.229 458.979 466.609Z" fill="#D1DEFF"/>
<path d="M525.777 236.371L515.767 268.273C515.393 269.77 513.615 270.425 512.305 269.489L494.062 255.83C491.443 253.959 490.133 250.591 490.881 247.411L497.711 218.596C487.607 221.402 479.936 228.513 479.936 246.662C479.936 270.425 492.098 290.82 507.066 289.697C525.31 288.294 533.168 271.454 529.052 248.065C527.648 240.113 527.555 241.236 525.777 236.371Z" fill="#D1DFF9"/>
<path d="M463.096 459.031C464.646 459.031 465.902 456.937 465.902 454.354C465.902 451.77 464.646 449.676 463.096 449.676C461.546 449.676 460.289 451.77 460.289 454.354C460.289 456.937 461.546 459.031 463.096 459.031Z" fill="#626BCA"/>
<path d="M412.576 409.447C412.576 412.067 409.77 429.094 410.705 430.029C411.641 430.965 415.383 436.578 416.318 437.514C417.254 438.449 416.318 441.256 414.447 441.256C412.576 441.256 404.156 434.707 404.156 433.772C404.156 432.836 403.221 429.094 403.221 426.287C403.221 423.48 403.221 400.092 404.156 399.156C405.092 398.221 402.285 369.219 400.414 370.154C400.414 370.154 410.705 379.51 433.158 380.445C433.158 380.445 430.352 407.576 430.352 410.383C430.352 410.383 425.674 431.9 426.609 435.643C427.545 439.385 427.545 443.127 430.352 444.063C433.158 444.998 435.029 447.805 433.158 447.805C431.287 447.805 424.738 448.74 423.803 446.869C422.867 444.998 417.254 440.32 418.189 438.449C419.125 436.578 419.125 432.836 419.125 431.9C419.125 430.965 419.125 405.705 420.061 405.705C420.061 405.705 422.867 381.381 417.254 377.639C417.254 377.639 412.576 407.576 412.576 409.447Z" fill="#FFC4B2"/>
<path d="M439.239 341.62C439.239 341.62 437.368 343.491 437.368 344.427C437.368 345.362 437.368 380.913 437.368 380.913C437.368 380.913 422.399 380.913 412.108 377.171C401.817 373.429 393.397 365.009 393.397 364.073C393.397 363.138 402.753 332.265 411.173 326.651C419.593 321.038 424.27 321.038 424.27 321.038C424.27 321.038 423.335 340.685 439.239 341.62Z" fill="#2E4384"/>
<path d="M469.644 348.637C469.644 348.637 472.451 349.572 473.387 350.508C474.322 351.443 477.129 354.25 479.936 353.314C479.936 353.314 484.613 353.314 484.613 351.443C484.613 349.572 484.613 349.572 482.742 348.637C480.871 347.701 480.871 343.959 479 343.959C477.129 343.959 472.451 345.83 469.644 344.895C466.838 343.959 469.644 348.637 469.644 348.637Z" fill="#F2C9C3"/>
<path d="M423.803 319.635C423.803 319.635 421.932 340.217 438.771 342.088C438.771 342.088 438.771 340.217 440.643 340.217C442.514 340.217 442.514 343.959 444.385 344.895C446.256 345.83 466.838 351.443 468.709 350.508C470.58 349.572 469.645 342.088 468.709 342.088C467.773 342.088 455.611 339.281 454.676 338.346C453.74 337.41 467.773 337.41 468.709 338.346C469.645 339.281 469.645 329.926 468.709 329.926C467.773 329.926 456.547 328.055 456.547 328.99C456.547 329.926 460.289 327.119 461.225 321.506C462.16 315.893 462.16 312.15 462.16 310.279C462.16 308.408 449.998 302.795 441.578 306.537C433.158 310.279 426.609 315.893 423.803 319.635Z" fill="#6E6FDB"/>
<path d="M461.225 299.988C461.225 299.988 463.096 304.666 465.902 305.602C468.709 306.537 476.193 309.344 482.742 299.053C489.291 288.762 492.098 288.762 483.678 285.02C475.258 281.277 457.482 293.439 461.225 299.988Z" fill="#FEC4B6"/>
<path d="M485.549 276.6C485.549 276.6 481.807 271.922 474.322 270.986C466.838 270.051 459.353 279.406 457.482 282.213C455.611 285.02 448.127 294.375 445.32 294.375C442.514 294.375 435.965 296.246 431.287 304.666C426.609 313.086 435.029 328.99 436.9 328.99C438.771 328.99 438.771 327.119 439.707 326.184C440.643 325.248 440.643 323.377 442.514 321.506C444.385 319.635 449.998 314.022 452.805 314.022C455.611 314.022 461.225 308.408 462.16 306.537C463.096 304.666 463.096 296.246 464.967 296.246C466.838 296.246 479 296.246 480.871 294.375C482.742 292.504 485.549 288.762 486.484 289.697C487.42 290.633 488.355 291.568 487.42 292.504C486.484 293.44 481.807 298.117 483.678 299.053C483.678 299.053 487.42 299.053 489.291 297.182C491.162 295.311 493.033 297.182 493.033 289.697C493.033 289.697 490.227 287.826 489.291 285.955C488.355 284.084 489.291 279.406 485.549 276.6Z" fill="#733D23"/>
<path d="M403.221 428.158C403.221 428.158 400.414 428.158 400.414 430.029C400.414 431.9 400.414 436.578 401.35 437.514C402.285 438.449 402.285 444.998 402.285 444.998H404.156V437.514C404.156 437.514 405.092 437.514 406.027 438.449C406.963 439.385 408.834 444.063 411.641 444.063C414.447 444.063 417.254 443.127 417.254 442.191C417.254 441.256 418.189 435.643 417.254 436.578C416.318 437.514 413.512 439.385 412.576 439.385C411.641 439.385 403.221 430.029 403.221 428.158Z" fill="#E34E92"/>
<path d="M427.545 446.869C427.545 446.869 431.287 445.934 430.352 444.063C430.352 444.063 437.836 444.063 438.771 444.998C439.707 445.934 437.836 448.74 435.965 449.676C434.094 450.611 432.41 452.482 429.416 452.482C425.674 452.482 420.061 446.869 420.061 445.934V453.418H417.254C417.254 453.418 417.254 444.063 416.318 444.063C415.383 444.063 415.383 435.643 416.318 435.643C420.996 435.643 421.932 445.934 427.545 446.869Z" fill="#FF6AB0"/>
<path d="M343.533 736.702L210.217 657.367C209.469 656.899 209.75 649.321 210.498 648.947L306.953 601.328C308.076 600.673 309.479 600.673 310.602 601.328L446.256 673.271C447.285 673.833 446.911 681.504 445.882 682.066L350.643 736.795C348.491 738.011 345.778 737.918 343.533 736.702Z" fill="#80C1FB"/>
<path d="M343.533 729.217L210.217 649.883C209.469 649.415 209.469 648.386 210.217 648.012L306.859 593.843C307.982 593.189 309.385 593.189 310.508 593.843L445.882 671.962C446.911 672.523 446.911 673.926 445.882 674.488L350.643 729.217C348.491 730.527 345.778 730.433 343.533 729.217Z" fill="#D1DEFF"/>
<path d="M448.127 672.336L314.811 591.785C313.876 591.318 313.408 590.289 313.408 589.259L311.537 469.322C311.537 466.89 316.028 461.464 318.179 462.68L446.443 535.84C450.372 538.085 453.834 541.453 453.74 546.037V669.529C453.74 670.465 448.875 672.804 448.127 672.336Z" fill="#92C1F5"/>
<path d="M447.285 672.242L312.005 594.592C311.069 594.124 310.602 593.095 310.602 592.066V468.293C310.602 465.861 313.221 464.27 315.373 465.487L443.636 538.646C447.566 540.892 449.998 545.102 449.998 549.686L449.062 671.213C449.062 672.149 448.127 672.71 447.285 672.242Z" fill="#F8F9F1"/>
<path d="M441.578 662.045L316.215 589.072L315.279 474L442.514 548.844L441.578 662.045Z" fill="#2E4384"/>
<path d="M434.094 636.785L323.699 574.104V505.809L435.029 570.361L434.094 636.785Z" fill="#F8F9FB"/>
<path d="M366.734 561.006C366.734 574.197 363.366 581.588 354.572 581.588C345.778 581.588 331.184 563.906 331.184 550.715C331.184 537.524 335.487 532.004 344.281 532.004C353.075 532.004 366.734 547.815 366.734 561.006Z" fill="#FF64A8"/>
<path d="M416.318 587.201L377.587 565.029C374.125 562.783 373.096 558.199 375.248 554.738C377.493 551.276 380.113 551.37 383.574 553.615L421.932 575.6C425.393 577.846 426.984 585.611 424.738 589.166C421.932 590.943 419.78 589.447 416.318 587.201Z" fill="#F86BAF"/>
<path d="M378.896 580.652H377.961V584.395H378.896V580.652Z" fill="#8B8CDE"/>
<path d="M382.639 583.459H380.768V585.33H382.639V583.459Z" fill="#8B8CDE"/>
<path d="M385.445 597.492H383.574V599.363H385.445V597.492Z" fill="#8B8CDE"/>
<path d="M388.252 586.266H386.381V589.072H388.252V586.266Z" fill="#8B8CDE"/>
<path d="M385.445 585.33H383.574V587.201H385.445V585.33Z" fill="#8B8CDE"/>
<path d="M391.994 588.137H390.123V590.943H391.994V588.137Z" fill="#8B8CDE"/>
<path d="M394.801 590.008H392.93V592.814H394.801V590.008Z" fill="#8B8CDE"/>
<path d="M382.639 595.621H380.768V597.492H382.639V595.621Z" fill="#8B8CDE"/>
<path d="M294.229 692.263L273.086 679.54C271.87 678.791 271.776 677.014 273.086 676.172L288.429 666.348C291.704 664.197 295.913 664.197 299.281 666.161L320.425 678.698C321.922 679.54 321.922 681.691 320.425 682.627L304.614 692.357C301.433 694.415 297.41 694.415 294.229 692.263Z" fill="#90C2FD"/>
<path d="M381.235 705.735L254.001 631.078C253.346 630.704 253.346 629.769 254.001 629.488L303.585 600.673C303.866 600.486 304.24 600.486 304.52 600.673L432.69 675.33C433.345 675.704 433.345 676.639 432.69 676.92L382.171 705.735C381.89 705.922 381.516 705.922 381.235 705.735Z" fill="#8BBEF3"/>
<path d="M513.615 648.947C516.199 648.947 518.293 646.853 518.293 644.269C518.293 641.686 516.199 639.592 513.615 639.592C511.032 639.592 508.937 641.686 508.937 644.269C508.937 646.853 511.032 648.947 513.615 648.947Z" fill="#F462A9"/>
<path d="M555.715 648.947C558.298 648.947 560.393 646.853 560.393 644.269C560.393 641.686 558.298 639.592 555.715 639.592C553.131 639.592 551.037 641.686 551.037 644.269C551.037 646.853 553.131 648.947 555.715 648.947Z" fill="#F462A9"/>
<path d="M502.389 630.236C504.455 630.236 506.131 628.561 506.131 626.494C506.131 624.427 504.455 622.752 502.389 622.752C500.322 622.752 498.646 624.427 498.646 626.494C498.646 628.561 500.322 630.236 502.389 630.236Z" fill="#F462A9"/>
<path d="M566.941 630.236C569.008 630.236 570.684 628.561 570.684 626.494C570.684 624.427 569.008 622.752 566.941 622.752C564.875 622.752 563.199 624.427 563.199 626.494C563.199 628.561 564.875 630.236 566.941 630.236Z" fill="#F462A9"/>
<path d="M527.648 621.816C527.648 621.816 508.002 623.687 505.195 625.559C502.389 627.43 502.389 623.687 504.26 622.752C506.131 621.816 525.777 619.945 526.713 619.945C527.648 619.945 527.648 621.816 527.648 621.816Z" fill="#8EBEEE"/>
<path d="M534.665 623.033C534.665 623.033 518.667 638.937 517.825 642.305C516.983 645.673 514.364 643.053 515.206 640.995C516.048 638.937 531.952 623.033 532.7 622.378C533.449 621.629 534.665 623.033 534.665 623.033Z" fill="#8EBEEE"/>
<path d="M534.665 623.033C534.665 623.033 550.663 638.937 551.505 642.305C552.347 645.673 554.966 643.053 554.124 640.995C553.282 638.937 537.378 623.033 536.63 622.378C535.881 621.629 534.665 623.033 534.665 623.033Z" fill="#8EBEEE"/>
<path d="M542.243 621.816C542.243 621.816 561.889 623.687 564.696 625.559C567.503 627.43 567.503 623.687 565.632 622.752C563.761 621.816 544.114 619.945 543.178 619.945C542.243 619.945 542.243 621.816 542.243 621.816Z" fill="#8EBEEE"/>
<path d="M535.133 622.752C540.3 622.752 544.488 621.076 544.488 619.01C544.488 616.943 540.3 615.268 535.133 615.268C529.966 615.268 525.777 616.943 525.777 619.01C525.777 621.076 529.966 622.752 535.133 622.752Z" fill="#5E95D5"/>
<path d="M538.875 594.686H531.391V619.01H538.875V594.686Z" fill="#F462A9"/>
<path d="M580.507 615.735C580.507 615.735 587.991 613.864 588.927 612.929C589.862 611.993 589.862 613.864 588.927 615.735C587.991 617.606 584.249 624.155 580.507 625.091C576.765 626.026 568.345 621.349 568.345 621.349C568.345 621.349 567.409 621.349 567.409 622.284C567.409 623.22 569.28 628.833 569.28 628.833H567.409C567.409 628.833 561.796 618.542 561.796 617.606C561.796 616.671 562.731 611.993 564.603 611.993C566.474 611.993 569.28 618.542 573.022 619.477C576.765 620.413 582.378 620.413 582.378 619.477C582.378 618.542 584.249 616.671 580.507 615.735Z" fill="#204A72"/>
<path d="M563.199 599.363H571.619C571.619 599.363 572.555 604.977 569.748 605.912C566.941 606.848 566.006 611.525 561.328 610.59C556.65 609.654 553.844 605.912 551.973 606.848C550.102 607.783 552.908 613.397 552.908 613.397L551.037 615.268C551.037 615.268 543.553 601.234 545.424 600.299C547.295 599.363 545.424 595.621 550.102 598.428C554.779 601.234 553.844 604.977 557.586 604.977C561.328 604.977 565.07 605.912 565.07 604.041C565.07 602.17 565.07 600.299 563.199 599.363Z" fill="#314582"/>
<path d="M577.232 613.396C577.232 613.396 580.039 616.203 580.975 616.203C581.91 616.203 583.781 616.203 582.846 618.074C581.91 619.945 579.103 620.881 577.232 620.881C575.361 620.881 569.748 617.139 568.812 616.203C567.877 615.268 565.07 612.461 565.07 611.525C565.07 610.59 567.877 587.201 567.877 585.33C567.877 583.459 571.619 567.555 571.619 567.555C571.619 567.555 565.07 570.361 564.135 568.49C563.199 566.619 547.295 554.457 548.23 552.586C549.166 550.715 547.295 541.359 547.295 541.359C547.295 541.359 550.102 534.811 553.844 534.811C557.586 534.811 564.135 535.746 565.07 536.682C566.006 537.617 569.748 536.682 567.877 546.973V548.844C567.877 548.844 579.103 547.908 580.039 548.844C580.975 549.779 585.652 550.715 585.652 555.393C585.652 560.07 575.361 604.977 574.426 607.783C573.49 610.59 577.232 613.396 577.232 613.396Z" fill="#F8A873"/>
<path d="M578.168 575.975L559.457 564.748L546.359 567.555L548.23 590.008L578.168 575.975Z" fill="#A09CFB"/>
<path d="M562.264 599.363C562.264 599.363 566.941 601.234 565.07 604.041C563.199 606.848 556.65 604.041 556.65 604.041L547.295 595.621C547.295 595.621 548.23 593.75 551.973 593.75C555.715 593.75 561.328 599.363 562.264 599.363Z" fill="#FABC89"/>
<path d="M545.424 541.359C545.424 541.359 565.07 549.779 566.941 562.877C568.812 575.975 552.908 579.717 548.23 580.652C543.553 581.588 542.617 543.23 545.424 541.359Z" fill="#FFDA5B"/>
<path d="M544.488 551.65C544.488 551.65 548.23 546.037 547.295 540.424C547.295 540.424 551.037 540.424 551.973 536.682C551.973 536.682 568.812 536.682 569.748 535.746C570.684 534.811 591.266 517.035 591.266 516.1C591.266 515.164 586.588 509.551 585.652 510.486C584.717 511.422 567.877 525.455 566.941 525.455C566.006 525.455 550.102 524.52 548.23 523.584C546.359 522.648 541.682 518.906 537.939 519.842C534.197 520.777 535.133 525.455 535.133 526.391C535.133 527.326 537.939 537.617 538.875 537.617C539.811 537.617 544.488 551.65 544.488 551.65Z" fill="#706ED9"/>
<path d="M541.682 512.357C541.682 512.357 549.166 507.68 550.102 502.066C551.037 496.453 549.166 485.227 549.166 485.227H531.391C531.391 485.227 536.068 503.002 536.068 503.938C536.068 504.873 541.682 512.357 541.682 512.357Z" fill="#FEAA85"/>
<path d="M548.418 522.461C548.698 522.461 548.792 522.274 548.698 522.087C547.295 520.31 543.459 515.445 542.711 512.451C541.775 508.709 541.775 499.353 541.775 497.482C541.775 495.611 548.324 490.933 549.259 489.998C550.195 489.062 551.131 486.256 551.131 485.32C551.131 484.385 542.711 475.965 538.033 476.9C533.355 477.836 527.742 477.836 523.064 483.449C518.386 489.062 518.386 503.096 518.386 504.967C518.386 506.838 517.451 508.709 518.386 510.58C519.322 512.451 529.613 518.064 529.613 518.064C529.613 518.064 534.291 520.871 536.162 521.806C537.752 522.555 545.424 521.9 548.418 522.461Z" fill="#FA65A5"/>
<path d="M512.212 505.528C510.715 504.499 508.75 504.312 506.973 504.967C504.166 506.089 500.143 508.148 499.489 510.486C498.553 514.229 506.037 568.49 506.037 568.49C506.037 568.49 506.037 571.297 508.844 575.039C511.651 578.781 537.846 598.428 540.653 599.363C543.459 600.299 549.073 600.299 549.073 599.363C549.073 598.896 548.792 594.966 548.605 590.756C548.324 586.546 548.137 582.056 548.137 580.652C548.137 577.846 545.33 545.102 545.33 545.102L543.459 529.197C543.459 529.197 542.337 524.987 536.91 521.713C533.262 519.468 518.106 509.364 512.212 505.528Z" fill="#EAECFF"/>
<path d="M505.195 507.68C505.195 507.68 499.582 505.809 498.646 509.551C497.711 513.293 501.453 572.232 501.453 572.232C501.453 572.232 501.453 575.039 504.26 578.781C507.066 582.523 534.197 599.363 537.004 600.299C539.811 601.234 543.553 599.363 543.553 598.428C543.553 597.492 541.682 586.266 541.682 583.459C541.682 580.652 539.811 548.844 539.811 548.844L538.875 532.939C538.875 532.939 537.752 528.729 532.326 525.455C527.648 522.648 505.195 507.68 505.195 507.68Z" fill="#8DC1FD"/>
<path d="M558.521 585.33L548.698 590.288L549.166 599.363C549.166 599.363 579.103 583.459 580.039 582.523C580.975 581.588 581.91 575.975 578.168 575.975C574.426 575.975 558.521 585.33 558.521 585.33Z" fill="#EAECFF"/>
<path d="M594.353 511.89L585.559 505.996C584.81 505.434 584.81 504.312 585.652 503.844L602.866 494.863C603.241 494.676 603.708 494.676 603.989 494.863L611.848 499.166C612.69 499.634 612.69 500.757 611.941 501.318L595.663 511.89C595.288 512.17 594.727 512.17 594.353 511.89Z" fill="#91CEFA"/>
<path d="M603.428 502.066C604.978 502.066 606.234 501.229 606.234 500.195C606.234 499.162 604.978 498.324 603.428 498.324C601.878 498.324 600.621 499.162 600.621 500.195C600.621 501.229 601.878 502.066 603.428 502.066Z" fill="#2F4284"/>
<path d="M590.33 514.229C590.33 514.229 594.072 512.357 595.943 512.357C597.814 512.357 602.492 509.551 602.492 508.615C602.492 507.68 603.428 504.873 601.557 504.873C599.686 504.873 597.814 506.744 596.879 506.744C595.943 506.744 594.072 506.744 594.072 505.809C594.072 504.873 599.686 504.873 599.686 503.938C599.686 503.002 594.072 502.066 593.137 503.002C592.201 503.938 588.459 511.422 587.523 511.422C586.588 511.422 590.33 514.229 590.33 514.229Z" fill="#F8C8B4"/>
<rect x="117" y="257.071" width="65" height="65" rx="15" transform="rotate(-65.3375 117 257.071)" fill="url(#paint0_linear)"/>
<rect x="106.293" y="215.491" width="57" height="57" rx="11" transform="rotate(-65.3375 106.293 215.491)" stroke="url(#paint1_linear)" stroke-width="8"/>
</g>
<defs>
<linearGradient id="paint0_linear" x1="149.5" y1="257.071" x2="149.5" y2="322.071" gradientUnits="userSpaceOnUse">
<stop stop-color="#95A7D7"/>
<stop offset="1" stop-color="#1D4DCE"/>
</linearGradient>
<linearGradient id="paint1_linear" x1="133.489" y1="217.457" x2="133.489" y2="282.457" gradientUnits="userSpaceOnUse">
<stop stop-color="#F583B6"/>
<stop offset="1" stop-color="#CB1466"/>
</linearGradient>
<clipPath id="clip0">
<rect y="-5" width="958" height="958" fill="white"/>
</clipPath>
</defs>
</svg>
